<?xml version="1.0" encoding="utf-8"?>
<!--Generator: Adobe Illustrator 22.1.0, SVG Export Plug-In . SVG Version: 6.00 Build 0)-->
<svg version="1.1" id="Community" xmlns="http://www.w3.org/2000/svg" xmlns:xlink="http://www.w3.org/1999/xlink" x="0px" y="0px" viewBox="0 0 1024 1024" style="enable-background:new 0 0 1024 1024" xml:space="preserve">
  <style type="text/css">
    .st0{fill:#7FB842;}
	.st1{clip-path:url(#SVGID_2_);fill:#CFEFAB;}
	.st2{fill:#FFFFFF;}
  </style>
  <g>
    <path class="st0" d="M711.4,809.9c162.6-90.4,137-196.5,137-196.5c-60.6,28.6-40.7-25.5-40.7-25.5c88.3-52.9,102.8-221.6,72.2-204
		c-30.5,17.6-44.8-12.8-44.8-12.8c47.6-29.5,34.6-177.2,34.6-177.2c-35.9,0.9-43.5,16.7-43.5,16.7c12.8-44.8-24.5-171.3-24.5-171.3
		C676.9,50.7,624.1,158.1,628.4,142.1c4.3-16-39.9-38.5-39.9-38.5c-113,31.7-174.1,115.7-174.1,115.7c-1.7-23-32.9-44.6-32.9-44.6
		c-75.3,53.7-97.1,235-97.1,235c-33.2-41.3-58.9-46.3-58.9-46.3c-63.3,105.8-61.9,203.8-58.3,241.2c23.1,9.7,57.4,35.7,78.1,105.3
		c0,0,0.4,27.9,22.8-34c0,0,127.2,177.6,19.7,236.2c19.5,0,32.8-12.9,32.8-12.9C369.3,725.7,454.8,563.2,519,456
		c23.9-42.8,51.7-86.5,84.1-129.6c0,0-36.1,49.4-84.1,129.6C393.3,681.5,376.9,885.6,376.9,885.6c113.2,262,395-52.1,395-52.1
		C668.3,820.1,711.4,809.9,711.4,809.9z"/>
    <g>
      <defs>
        <path id="SVGID_1_" d="M856.1-39.4c0,0-349.2,388.3-535.7,938.9c-39.3,116-335.7-224.6-335.7-224.6L202,46.3L856.1-39.4z"/>
      </defs>
      <clipPath id="SVGID_2_">
        <use xlink:href="#SVGID_1_" style="overflow:visible"/>
      </clipPath>
      <path class="st1" d="M283.7,912.4c0,0-144.7,16.5-169.7-295.1c0,0,10.8-15.6,55.2,3.7c0,0-24.5-122.3,56.2-257.3
			c0,0,25.8,5,58.9,46.3c0,0,21.8-181.3,97.1-235c0,0,31.2,21.6,32.9,44.6c0,0,61-84.1,174.1-115.7c0,0,44.2,22.5,39.9,38.5
			c-4.3,16,48.5-91.4,173.2-102.7c0,0,37.3,126.5,24.5,171.3c0,0,7.6-15.8,43.5-16.7c0,0,13.1,147.7-34.6,177.2
			c0,0,14.3,30.3,44.8,12.8c30.5-17.6,16.1,151.2-72.2,204c0,0-19.9,54.1,40.7,25.5c0,0,25.6,106.1-137,196.5
			c0,0-43.1,10.2,60.4,23.6c0,0-281.8,314.1-395,52.1c0,0,23.2-289.1,226.3-559.3c0,0-197.3,269.6-282.7,572.9
			C320.5,899.5,305.4,914.4,283.7,912.4z"/>
    </g>
  </g>
  <g>
    <path class="st2" d="M755.4,339.7c-16.2,10.5-34.2,23.8-54.1,40c-20.8,16.5-37.4,31.3-49.8,44.3l-1.6-1.6
		c14-51.9,2.6-93.2-34.2-124l-65.9,141.3l16.4,14.5L625,328c8.4,9.4,14.2,17.9,17.3,25.4c3.1,7.5,5.2,17.9,6,31.1l-2.6-1.2l-1-2.9
		c-2.8-7.3-5.1-12.3-6.7-14.9c-1.6-4.9-4.4-10.3-8.5-16.1c-0.2-0.6-0.6-1.2-1.1-1.7c-0.5-0.5-0.9-1.1-1.1-1.7l-53.6,114.8l3.9,3.4
		c14.9,13.3,23.5,21.1,25.8,23.4c10.6,9.1,20.3,21.1,29,36c6.8,12.6,11.4,25.3,14,38.2c2.6,12.9,2.9,26.1,1.1,39.6
		c-1.8,13.5-5.6,26.3-11.2,38.4c-10.6,22.8-26.7,41.1-48.1,54.9c-21.4,13.8-45.2,21.4-71.5,22.6c-26.2,1.2-52.1-4.1-77.4-15.9
		l-9.7-4.5L402,756l-26.5-12.4l16.3-34.8l-39.2-29.7l-27.3-21.4c-18-12.6-31-20.8-39.2-24.6c-11.6-5.4-23.9-8.3-36.9-8.6l0.8-11.8
		c14,1,26.4,4,37.4,9.1c9.7,4.5,19.8,10.4,30.3,17.6c10.5,7.2,24.2,17.7,41.1,31.5c6.5,5.1,11.1,8.8,13.9,11
		c2.8,2.2,4.8,3.7,5.9,4.5l17.6,12.9l8.6-18.3c-4.4-2.9-8.9-5.8-13.6-8.9c-4.6-3.1-9.5-6.6-14.7-10.6c-5.2-4-11.7-9.2-19.5-15.6
		c-7.8-6.4-15.4-12.7-23-18.8c-13.7-11.1-26.4-19.5-38.2-25c-13.1-6.1-29.2-8.5-48.2-7.2l0-6.6c20.1-12.8,39.7-26.8,58.7-42
		c19-15.2,35.8-30.3,50.5-45.4l5.2,2.4c-9.8,32.3-10.1,61.8-0.8,88.4c9.3,26.6,27.6,48.3,55,65l64.6-138.3L439.7,485
		c-19.3-15.8-32-28.9-37.9-39.2c-5.9-10.3-8.2-22.6-6.8-36.9l9,11.1c0.5,9.1,3.7,17.6,9.7,25.5c6,7.9,17.2,18.6,33.8,32.1l38,30.5
		l8.1-17.2l-5.5-4.1c-36.1-27.1-59.5-48.7-70.3-65c-9.9-15.3-15.2-33.1-16-53.2c-0.8-20.1,3.1-39.5,11.7-58
		c11.2-24.1,26.3-42.4,45.1-54.9c18.8-12.6,40.7-18.8,65.6-18.9c24.9,0,51.3,6.3,79.1,19.1l20.3-43.6l26.5,12.3L628.8,270
		c6.3,4,12,8.2,17.2,12.8l17.8-38.1l6,9.9l-15.1,32.3c2.9,2.1,4.4,3.5,4.4,4c7.2,5.2,17.6,13.5,31.1,24.7
		c11.3,8.9,20.1,14.9,26.3,17.8c6.7,3.1,12.5,4.9,17.6,5.3c5.1,0.4,11.6-0.3,19.5-2.1L755.4,339.7z M387.3,530.6
		c-6,23-7.3,42.3-3.8,57.8c3.5,15.5,13,34,28.6,55.7l-1.2,2.5c-17-14-28.6-31.6-34.5-52.8s-5.7-42.7,0.9-64.6L387.3,530.6z
		 M659.1,545.9c9.2,15.8,14.1,33.4,14.7,52.8c0.7,19.4-2.8,37.3-10.4,53.6c-11.5,24.7-28,45.2-49.3,61.4
		c-21.3,16.2-45.4,26.8-72.2,31.7c-26.8,4.9-53.1,3.3-78.9-4.9l-14.7-4.5l-3.7-0.6l-27.1,58.1l-35.2-16.4l-3-12l34.2,16l27.2-58.4
		c26.9,11.8,54.6,16.4,83.1,13.9c28.5-2.5,54.3-11.5,77.5-27c23.2-15.5,40.8-36,52.7-61.6c6.8-14.6,10.6-31.2,11.3-49.7
		c0.7-18.5-1.7-35.3-7.1-50.5L659.1,545.9z M525.8,421.6l53-113.6c-15-6-29.2-6.5-42.4-1.7c-13.3,4.8-23,14-29.4,27.5
		c-9.2,19.8-5.7,42.1,10.7,67.1l-0.9,2c-8.7-10.1-14.9-19.1-18.7-27c-3.8-7.9-5.7-16-5.7-24.3c-0.1-8.3,2-16.8,6.1-25.7
		c6.9-14.8,18.6-24.9,34.9-30.1c16.3-5.2,32.9-4.3,49.8,2.8l8-17.1c-14.8-6.4-29.6-9.4-44.4-8.9c-14.8,0.4-28,4.1-39.7,10.9
		c-11.7,6.8-20.4,16.4-26.2,28.6c-8.3,17.8-9.3,35.2-2.9,52.1c6.4,16.9,21,35.1,43.9,54.7L525.8,421.6z M469,683.2
		c24.5,5.1,45.3,4.1,62.4-2.9c17.1-7.1,30.1-20.1,39-39.1c11.1-23.7,9.5-49.7-4.6-78.1c-6.2-11.8-13.2-21.5-20.9-29
		c-6.3-5.5-14.8-12.6-25.5-21.2l-3.3-3.1l-75.5,161.7l20.4,7.7l63.8-136.6c16.2,12.3,27.7,24.1,34.6,35.6
		c6.9,11.5,9.8,23.8,8.6,36.8l-2.9-1.4c-5-20.1-17.5-38.8-37.6-56.1L469,683.2z M770.5,362.9l-5.9,3.5c-10.7,7.1-19.7,13.2-27,18.5
		c-7.3,5.2-14.4,10.8-21.2,16.6c-6.8,5.9-12.8,11-18.1,15.4l-29,24.2l-6.2-6.1l33.9-28.6c1.3-1.2,15-12,40.8-32.4
		c9.7-7.3,17.4-12.7,23-16.3l2.7-2.3L770.5,362.9z"/>
  </g>
</svg>
