<?xml version="1.0" encoding="utf-8"?>
<!--Generator: Adobe Illustrator 22.1.0, SVG Export Plug-In . SVG Version: 6.00 Build 0)-->
<svg version="1.1" id="Community" xmlns="http://www.w3.org/2000/svg" xmlns:xlink="http://www.w3.org/1999/xlink" x="0px" y="0px" viewBox="0 0 150 58" style="enable-background:new 0 0 150 58" xml:space="preserve">
  <style type="text/css">
    .st0{fill:#7FB842;}
	.st1{clip-path:url(#SVGID_2_);fill:#CFEFAB;}
	.st2{fill:#318040;}
	.st3{fill:#74AF7B;}
	.st4{fill:#FFFFFF;}
  </style>
  <g>
    <path class="st0" d="M75,16.6c2.9-1.6,2.4-3.5,2.4-3.5c-1.1,0.5-0.7-0.5-0.7-0.5c1.6-0.9,1.8-3.9,1.3-3.6c-0.5,0.3-0.8-0.2-0.8-0.2
		c0.8-0.5,0.6-3.1,0.6-3.1C77.2,5.7,77,6,77,6c0.2-0.8-0.4-3-0.4-3c-2.2,0.2-3.1,2.1-3.1,1.8c0.1-0.3-0.7-0.7-0.7-0.7
		c-2,0.6-3.1,2.1-3.1,2.1c0-0.4-0.6-0.8-0.6-0.8c-1.3,1-1.7,4.2-1.7,4.2c-0.6-0.7-1-0.8-1-0.8c-1.1,1.9-1.1,3.6-1,4.3
		c0.4,0.2,1,0.6,1.4,1.9c0,0,0,0.5,0.4-0.6c0,0,2.3,3.1,0.3,4.2c0.3,0,0.6-0.2,0.6-0.2c0.9-3.1,2.4-6,3.5-7.9
		C72,9.6,72.5,8.8,73.1,8c0,0-0.6,0.9-1.5,2.3c-2.2,4-2.5,7.6-2.5,7.6c2,4.6,7-0.9,7-0.9C74.2,16.8,75,16.6,75,16.6z"/>
    <g>
      <defs>
        <path id="SVGID_1_" d="M77.6,1.6c0,0-6.2,6.9-9.5,16.6c-0.7,2.1-5.9-4-5.9-4L66,3.1L77.6,1.6z"/>
      </defs>
      <clipPath id="SVGID_2_">
        <use xlink:href="#SVGID_1_" style="overflow:visible"/>
      </clipPath>
      <path class="st1" d="M67.4,18.4c0,0-2.6,0.3-3-5.2c0,0,0.2-0.3,1,0.1c0,0-0.4-2.2,1-4.6c0,0,0.5,0.1,1,0.8c0,0,0.4-3.2,1.7-4.2
			c0,0,0.6,0.4,0.6,0.8c0,0,1.1-1.5,3.1-2.1c0,0,0.8,0.4,0.7,0.7c-0.1,0.3,0.9-1.6,3.1-1.8c0,0,0.7,2.2,0.4,3c0,0,0.1-0.3,0.8-0.3
			c0,0,0.2,2.6-0.6,3.1c0,0,0.3,0.5,0.8,0.2c0.5-0.3,0.3,2.7-1.3,3.6c0,0-0.4,1,0.7,0.5c0,0,0.5,1.9-2.4,3.5c0,0-0.8,0.2,1.1,0.4
			c0,0-5,5.6-7,0.9c0,0,0.4-5.1,4-9.9c0,0-3.5,4.8-5,10.2C68.1,18.2,67.8,18.5,67.4,18.4z"/>
    </g>
  </g>
  <path class="st2" d="M4.2,31.1c0-3.1,0-6.4-0.1-9.3h12.2c0.1,0.8,0.3,2.4,0.4,3.6c1.8-2.3,4.7-4.5,9.6-4.5c5.1,0,7.6,2.5,8.7,4.7
	c2-2.3,4.8-4.7,10.5-4.7c6.3,0,11.1,4,11.1,12.7v22.2H44.1V34.8c0-2.5-0.8-4.6-3.5-4.6c-2.8,0-3.9,1.8-3.9,5.8v19.9H24.2v-21
	c0-2.6-0.6-4.7-3.5-4.7c-2.8,0-4,1.6-4,6v19.6H4.2V31.1z"/>
  <rect x="63.8" y="21.8" class="st2" width="12.7" height="34.1"/>
  <path class="st2" d="M84,30.6c0-3,0-6.1-0.1-8.8h12.4c0.2,0.9,0.3,2.7,0.4,3.8c1.3-2,4.1-4.6,9.7-4.6c6.8,0,11.1,4.6,11.1,13v22
	h-12.7V35.4c0-3.3-0.9-5.1-3.9-5.1c-2.6,0-4.3,1.4-4.3,6.2v19.4H84V30.6z"/>
  <path class="st2" d="M121.6,21.8h4.9V13H139v8.8h6v8.5h-6V45c0,2.1,0.7,2.9,3.3,2.9c0.5,0,1.1,0,1.8-0.1v7.8c-2,0.7-5.3,0.8-7.4,0.8
	c-8.1,0-10.3-3.9-10.3-10.4V30.3h-4.8V21.8z"/>
  <path class="st3" d="M45.4,21c-5.7,0-8.5,2.4-10.5,4.7c-1.1-2.2-3.6-4.7-8.7-4.7c-4.9,0-7.7,2.1-9.6,4.5c-0.1-1.2-0.3-2.9-0.4-3.6
	H4.1c0,1,0,2,0,3c12,2.8,30.5,4.9,52.1,5.7C55.2,24,51,21,45.4,21z"/>
  <path class="st3" d="M63.8,21.8v9c4.1,0.1,8.4,0.2,12.7,0.2v-9.1H63.8z"/>
  <path class="st3" d="M139,21.8V13h-12.5v8.8h-4.9v7.3c8.9-0.8,16.9-1.9,23.4-3.1v-4.2H139z"/>
  <g>
    <path class="st4" d="M75.8,8.3c-0.3,0.2-0.6,0.4-1,0.7c-0.4,0.3-0.7,0.6-0.9,0.8l0,0c0.2-0.9,0-1.7-0.6-2.2l-1.2,2.5l0.3,0.3l1-2.2
		c0.1,0.2,0.3,0.3,0.3,0.4c0.1,0.1,0.1,0.3,0.1,0.6l0,0l0-0.1c-0.1-0.1-0.1-0.2-0.1-0.3c0-0.1-0.1-0.2-0.2-0.3c0,0,0,0,0,0
		c0,0,0,0,0,0l-0.9,2l0.1,0.1c0.3,0.2,0.4,0.4,0.5,0.4c0.2,0.2,0.4,0.4,0.5,0.6c0.1,0.2,0.2,0.4,0.2,0.7c0,0.2,0.1,0.5,0,0.7
		c0,0.2-0.1,0.5-0.2,0.7c-0.2,0.4-0.5,0.7-0.9,1c-0.4,0.2-0.8,0.4-1.3,0.4c-0.5,0-0.9-0.1-1.4-0.3L70,14.6l-0.5,1.1L69,15.4l0.3-0.6
		l-0.7-0.5l-0.5-0.4c-0.3-0.2-0.5-0.4-0.7-0.4c-0.2-0.1-0.4-0.1-0.7-0.2l0-0.2c0.2,0,0.5,0.1,0.7,0.2c0.2,0.1,0.4,0.2,0.5,0.3
		c0.2,0.1,0.4,0.3,0.7,0.6c0.1,0.1,0.2,0.2,0.2,0.2c0,0,0.1,0.1,0.1,0.1l0.3,0.2l0.2-0.3c-0.1-0.1-0.2-0.1-0.2-0.2
		c-0.1-0.1-0.2-0.1-0.3-0.2c-0.1-0.1-0.2-0.2-0.3-0.3c-0.1-0.1-0.3-0.2-0.4-0.3c-0.2-0.2-0.5-0.3-0.7-0.4c-0.2-0.1-0.5-0.2-0.9-0.1
		l0-0.1c0.4-0.2,0.7-0.5,1-0.7c0.3-0.3,0.6-0.5,0.9-0.8l0.1,0c-0.2,0.6-0.2,1.1,0,1.6c0.2,0.5,0.5,0.9,1,1.2l1.1-2.5l-0.7-0.6
		c-0.3-0.3-0.6-0.5-0.7-0.7c-0.1-0.2-0.1-0.4-0.1-0.7l0.2,0.2c0,0.2,0.1,0.3,0.2,0.5c0.1,0.1,0.3,0.3,0.6,0.6l0.7,0.5l0.1-0.3
		L71,10.9c-0.6-0.5-1.1-0.9-1.2-1.2c-0.2-0.3-0.3-0.6-0.3-0.9c0-0.4,0.1-0.7,0.2-1c0.2-0.4,0.5-0.8,0.8-1c0.3-0.2,0.7-0.3,1.2-0.3
		c0.4,0,0.9,0.1,1.4,0.3L73.4,6l0.5,0.2L73.5,7c0.1,0.1,0.2,0.1,0.3,0.2l0.3-0.7l0.1,0.2L74,7.3c0.1,0,0.1,0.1,0.1,0.1
		c0.1,0.1,0.3,0.2,0.6,0.4C74.8,8,75,8.1,75.1,8.2c0.1,0.1,0.2,0.1,0.3,0.1C75.5,8.3,75.6,8.3,75.8,8.3L75.8,8.3z M69.2,11.7
		c-0.1,0.4-0.1,0.7-0.1,1c0.1,0.3,0.2,0.6,0.5,1l0,0c-0.3-0.2-0.5-0.6-0.6-0.9c-0.1-0.4-0.1-0.8,0-1.1L69.2,11.7z M74.1,11.9
		c0.2,0.3,0.2,0.6,0.3,0.9c0,0.3-0.1,0.7-0.2,1c-0.2,0.4-0.5,0.8-0.9,1.1c-0.4,0.3-0.8,0.5-1.3,0.6c-0.5,0.1-0.9,0.1-1.4-0.1
		l-0.3-0.1l-0.1,0l-0.5,1L69.2,16l-0.1-0.2l0.6,0.3l0.5-1c0.5,0.2,1,0.3,1.5,0.2c0.5,0,1-0.2,1.4-0.5c0.4-0.3,0.7-0.6,0.9-1.1
		c0.1-0.3,0.2-0.6,0.2-0.9C74.2,12.5,74.1,12.2,74.1,11.9L74.1,11.9z M71.7,9.7l0.9-2c-0.3-0.1-0.5-0.1-0.8,0
		c-0.2,0.1-0.4,0.2-0.5,0.5c-0.2,0.4-0.1,0.7,0.2,1.2l0,0c-0.2-0.2-0.3-0.3-0.3-0.5c-0.1-0.1-0.1-0.3-0.1-0.4c0-0.1,0-0.3,0.1-0.5
		c0.1-0.3,0.3-0.4,0.6-0.5c0.3-0.1,0.6-0.1,0.9,0l0.1-0.3c-0.3-0.1-0.5-0.2-0.8-0.2c-0.3,0-0.5,0.1-0.7,0.2
		c-0.2,0.1-0.4,0.3-0.5,0.5c-0.1,0.3-0.2,0.6-0.1,0.9C71,9,71.2,9.3,71.7,9.7L71.7,9.7z M70.7,14.4c0.4,0.1,0.8,0.1,1.1-0.1
		c0.3-0.1,0.5-0.4,0.7-0.7c0.2-0.4,0.2-0.9-0.1-1.4c-0.1-0.2-0.2-0.4-0.4-0.5c-0.1-0.1-0.3-0.2-0.5-0.4l-0.1-0.1l-1.3,2.9l0.4,0.1
		l1.1-2.4c0.3,0.2,0.5,0.4,0.6,0.6c0.1,0.2,0.2,0.4,0.2,0.7l-0.1,0c-0.1-0.4-0.3-0.7-0.7-1L70.7,14.4z M76,8.7l-0.1,0.1
		c-0.2,0.1-0.3,0.2-0.5,0.3c-0.1,0.1-0.3,0.2-0.4,0.3c-0.1,0.1-0.2,0.2-0.3,0.3l-0.5,0.4L74.1,10l0.6-0.5c0,0,0.3-0.2,0.7-0.6
		c0.2-0.1,0.3-0.2,0.4-0.3l0,0L76,8.7z"/>
  </g>
</svg>
